<?xml version="1.0" encoding="UTF-8"?>
<svg xmlns="http://www.w3.org/2000/svg" width="228" height="99" viewBox="0 0 228 99" fill="none">
  <path d="M70.9803 5.37368C70.8787 7.30614 70.1724 18.5216 69.7892 25.0505C69.5422 29.3014 67.9633 30.4731 64.4754 31.033C63.9098 31.1233 22.5007 32.5433 14.0453 32.9293C14.0453 32.9293 63.3074 45.6483 65.9066 46.917C66.8437 47.3731 68.3626 48.3574 68.2841 50.0528C68.1641 52.6535 68.0279 54.1525 67.7832 58.5592C67.5455 62.8215 66.1674 63.4536 65.4149 63.8915C64.6624 64.3295 10.2458 96.0751 10.2458 96.0751C6.32623 97.9624 4.05714 95.215 3.45698 92.4314C3.03917 90.5441 1.05631 80.4777 0.132981 72.8382C-0.379469 68.6098 0.539247 67.4472 3.76168 66.0181C8.76152 63.8125 38.7237 54.5927 55.6645 49.7999C55.923 49.7209 56.6432 49.6126 56.6363 49.2852C46.999 46.2217 37.2025 43.6391 27.519 40.6975C20.2501 38.4896 14.9548 37.2209 7.7574 35.0062C5.78147 34.3899 2.0512 32.1459 2.19663 29.6333C2.36744 26.6872 2.65137 23.2467 2.72524 22.2737C2.95838 19.244 4.2395 18.323 8.40604 17.0813C12.5726 15.8397 65.2949 0.133919 65.2949 0.133919C69.5814 -0.701373 71.1257 2.53143 70.9803 5.37143V5.37368Z" fill="#290A3F"></path>
  <path d="M94.6868 84.3765H93.5165L93.0064 82.3989H90.2918L89.777 84.3697H88.6067L90.7165 76.5609H92.5978L94.6868 84.3742V84.3765ZM91.5821 77.4097L90.4764 81.5478H92.8263L91.7299 77.4097H91.5821Z" fill="#290A3F"></path>
  <path d="M98.8325 84.5029C98.5324 84.5029 98.2393 84.4442 97.9507 84.3291C97.6645 84.214 97.4037 84.0356 97.1728 83.7963C96.942 83.557 96.755 83.2523 96.6188 82.8843C96.4803 82.5163 96.4111 82.0806 96.4134 81.5794C96.4134 80.9112 96.5288 80.3603 96.7573 79.9314C96.9858 79.5025 97.2813 79.1864 97.6414 78.9832C98.0038 78.7801 98.3824 78.6807 98.7817 78.6807C99.1395 78.6807 99.4581 78.7507 99.7374 78.8884C100.017 79.0261 100.254 79.2067 100.451 79.428C100.647 79.6492 100.795 79.8885 100.894 80.1459C100.995 80.4032 101.044 80.6493 101.044 80.8886L100.617 81.0399C100.58 80.857 100.52 80.6809 100.437 80.5071C100.356 80.3332 100.25 80.1775 100.121 80.0353C99.9913 79.893 99.8413 79.7802 99.6704 79.6966C99.4996 79.6131 99.308 79.5702 99.0934 79.5702C98.8117 79.5702 98.5532 79.6424 98.3178 79.7847C98.0823 79.9269 97.893 80.1459 97.7522 80.4416C97.6114 80.7374 97.5399 81.1166 97.5399 81.5817C97.5399 82.04 97.6114 82.4192 97.7591 82.7195C97.9046 83.0197 98.0985 83.2455 98.3408 83.3945C98.5832 83.5435 98.8464 83.618 99.1303 83.618C99.3403 83.618 99.5296 83.5728 99.7028 83.4825C99.8759 83.3922 100.026 83.2703 100.151 83.1168C100.275 82.9633 100.377 82.794 100.453 82.6043C100.529 82.4147 100.578 82.2206 100.596 82.0196L101.058 82.1709C101.058 82.417 101.007 82.6766 100.908 82.9497C100.808 83.2229 100.663 83.478 100.474 83.7128C100.282 83.9476 100.051 84.1395 99.7766 84.2862C99.5019 84.433 99.188 84.5052 98.8302 84.5052L98.8325 84.5029ZM99.0403 86.7469C98.6594 86.7469 98.3201 86.6973 98.02 86.5979C97.7199 86.4986 97.4614 86.3632 97.2467 86.1871C97.032 86.011 96.8681 85.8123 96.7573 85.5866C96.6465 85.3608 96.5888 85.1238 96.5911 84.8754H97.7199C97.7199 84.9635 97.743 85.0628 97.7915 85.1757C97.8399 85.2886 97.9161 85.3992 98.0223 85.5075C98.1285 85.6159 98.267 85.704 98.4378 85.7762C98.6086 85.8462 98.8187 85.8823 99.0657 85.8823C99.3934 85.8823 99.6658 85.8078 99.8874 85.6543C100.109 85.503 100.275 85.2908 100.388 85.0199C100.501 84.749 100.557 84.4375 100.557 84.083L100.561 79.9833L100.615 78.8071H101.693L101.686 84.0018C101.686 84.3562 101.644 84.6768 101.561 84.9635C101.478 85.2524 101.36 85.5075 101.205 85.731C101.051 85.9545 100.866 86.1419 100.649 86.2932C100.432 86.4444 100.188 86.5596 99.9174 86.6363C99.6474 86.7131 99.3542 86.7492 99.038 86.7492L99.0403 86.7469Z" fill="#290A3F"></path>
  <path d="M106.475 84.512C106.134 84.512 105.794 84.4533 105.457 84.3359C105.12 84.2185 104.816 84.0401 104.543 83.8008C104.271 83.5615 104.052 83.259 103.888 82.891C103.724 82.5231 103.643 82.0874 103.643 81.5862C103.643 81.085 103.726 80.6493 103.89 80.2813C104.054 79.9133 104.273 79.6108 104.55 79.376C104.827 79.1413 105.134 78.9652 105.471 78.85C105.808 78.7349 106.155 78.6785 106.503 78.6785C106.868 78.6785 107.219 78.7349 107.551 78.8478C107.886 78.9607 108.184 79.1255 108.442 79.3444C108.703 79.5634 108.908 79.8388 109.061 80.1707C109.213 80.5026 109.287 80.8886 109.287 81.3311C109.287 81.4011 109.285 81.4801 109.278 81.5659C109.271 81.6517 109.262 81.7262 109.245 81.7894L104.541 81.7826V81.0737L108.096 81.0782V80.9879C108.096 80.6877 108.024 80.4258 107.881 80.2068C107.738 79.9878 107.544 79.8185 107.304 79.7011C107.062 79.5837 106.801 79.525 106.519 79.525C106.314 79.525 106.111 79.5634 105.91 79.6379C105.709 79.7147 105.524 79.8343 105.356 79.9969C105.187 80.1594 105.053 80.3739 104.952 80.6358C104.85 80.8976 104.8 81.2137 104.8 81.5817C104.8 82.0399 104.88 82.4215 105.047 82.7285C105.213 83.0355 105.425 83.2681 105.691 83.4238C105.954 83.5796 106.238 83.6586 106.538 83.6586C106.819 83.6586 107.062 83.6157 107.267 83.5277C107.473 83.4419 107.641 83.3313 107.77 83.1981C107.9 83.0671 107.987 82.9362 108.034 82.812L109.07 83.32C108.982 83.4758 108.862 83.6247 108.708 83.7692C108.553 83.9115 108.366 84.0401 108.149 84.1508C107.93 84.2614 107.68 84.3494 107.401 84.4149C107.122 84.4804 106.812 84.512 106.473 84.512H106.475Z" fill="#290A3F"></path>
  <path d="M111.455 84.3968L111.462 78.8184H112.47L112.595 79.963L112.59 84.3968H111.455ZM115.219 84.4013L115.224 81.2498C115.224 80.8547 115.183 80.5364 115.097 80.2926C115.012 80.0488 114.882 79.8705 114.709 79.7576C114.536 79.6447 114.315 79.586 114.045 79.586C113.851 79.586 113.668 79.6221 113.495 79.6966C113.322 79.7711 113.167 79.875 113.033 80.0082C112.897 80.1414 112.789 80.2971 112.706 80.471C112.623 80.6448 112.574 80.8322 112.563 81.0286L112.244 80.927C112.244 80.647 112.293 80.3761 112.385 80.1098C112.477 79.8434 112.616 79.6041 112.796 79.3896C112.976 79.1751 113.202 79.0058 113.472 78.8794C113.742 78.753 114.056 78.6898 114.414 78.692C114.709 78.692 114.979 78.7372 115.217 78.8275C115.455 78.9178 115.663 79.0577 115.833 79.2496C116.004 79.4415 116.136 79.6898 116.226 79.9924C116.316 80.2949 116.362 80.6583 116.362 81.0828L116.357 84.4013H115.222H115.219Z" fill="#290A3F"></path>
  <path d="M121.595 84.5323C121.332 84.5323 121.069 84.4962 120.803 84.4262C120.538 84.3562 120.284 84.2456 120.042 84.0988C119.799 83.9521 119.585 83.7625 119.398 83.5322C119.211 83.3019 119.061 83.0265 118.95 82.7082C118.839 82.3899 118.786 82.0219 118.786 81.6065C118.786 81.1866 118.841 80.8164 118.952 80.4958C119.063 80.1752 119.213 79.9021 119.4 79.6741C119.589 79.446 119.804 79.2609 120.044 79.1164C120.284 78.972 120.54 78.8681 120.806 78.7981C121.071 78.7304 121.337 78.6965 121.6 78.6965C121.907 78.6965 122.191 78.7349 122.447 78.8094C122.703 78.8839 122.934 78.9878 123.137 79.1164C123.34 79.2474 123.513 79.3941 123.656 79.5612C123.8 79.726 123.906 79.9021 123.977 80.0894L122.973 80.541C122.927 80.392 122.849 80.2407 122.738 80.0894C122.627 79.9359 122.477 79.8095 122.29 79.7057C122.103 79.6041 121.884 79.5521 121.627 79.5521C121.434 79.5521 121.24 79.5905 121.043 79.665C120.847 79.7418 120.667 79.8614 120.503 80.0262C120.339 80.191 120.21 80.4055 120.111 80.6674C120.014 80.9292 119.965 81.243 119.963 81.6065C119.963 81.9677 120.012 82.277 120.106 82.5389C120.203 82.7985 120.332 83.0152 120.496 83.1845C120.66 83.3539 120.838 83.478 121.034 83.5593C121.23 83.6406 121.424 83.6789 121.618 83.6789C121.877 83.6789 122.098 83.6315 122.283 83.5322C122.468 83.4351 122.615 83.311 122.729 83.1642C122.842 83.0175 122.918 82.873 122.959 82.733L123.968 83.1913C123.897 83.3584 123.788 83.5232 123.647 83.6812C123.506 83.8415 123.333 83.9837 123.13 84.1124C122.927 84.2411 122.696 84.3427 122.438 84.4194C122.179 84.4962 121.895 84.5323 121.588 84.5323H121.595Z" fill="#290A3F"></path>
  <path d="M128.721 84.5391C128.379 84.5391 128.04 84.4804 127.703 84.363C127.366 84.2456 127.061 84.0672 126.789 83.8279C126.516 83.5909 126.297 83.2861 126.133 82.9181C125.969 82.5502 125.889 82.1145 125.891 81.6133C125.891 81.1121 125.974 80.6764 126.138 80.3084C126.302 79.9404 126.521 79.6379 126.798 79.4031C127.075 79.1684 127.382 78.9923 127.719 78.8771C128.056 78.762 128.402 78.7056 128.751 78.7056C129.116 78.7056 129.467 78.762 129.799 78.8749C130.131 78.9878 130.431 79.1526 130.69 79.3715C130.951 79.5905 131.156 79.8659 131.309 80.1978C131.461 80.5297 131.535 80.9157 131.535 81.3582C131.535 81.4282 131.532 81.5072 131.526 81.593C131.519 81.6788 131.509 81.7533 131.493 81.8165L126.789 81.8097V81.1008L130.344 81.1053V81.015C130.344 80.7148 130.272 80.4529 130.129 80.2339C129.986 80.0149 129.792 79.8456 129.552 79.7282C129.31 79.6108 129.049 79.5521 128.767 79.5521C128.562 79.5521 128.359 79.5905 128.158 79.665C127.957 79.7418 127.772 79.8614 127.604 80.024C127.435 80.1865 127.301 80.401 127.2 80.6629C127.098 80.9247 127.047 81.2408 127.047 81.6088C127.047 82.067 127.128 82.4486 127.294 82.7556C127.458 83.0626 127.673 83.2952 127.938 83.4509C128.202 83.6067 128.485 83.6857 128.786 83.6857C129.067 83.6857 129.31 83.6428 129.515 83.5548C129.72 83.4667 129.887 83.3584 130.018 83.2252C130.147 83.0942 130.235 82.9633 130.281 82.8369L131.318 83.3448C131.23 83.5006 131.11 83.6496 130.955 83.7941C130.801 83.9363 130.614 84.065 130.397 84.1756C130.177 84.2862 129.928 84.3743 129.649 84.4397C129.37 84.5052 129.06 84.5368 128.721 84.5368V84.5391Z" fill="#290A3F"></path>
  <path d="M141.177 84.5548C140.876 84.5548 140.583 84.4961 140.295 84.381C140.006 84.2659 139.748 84.0875 139.517 83.8482C139.286 83.6089 139.101 83.3042 138.963 82.9362C138.824 82.5682 138.755 82.1325 138.757 81.6313C138.757 80.9631 138.873 80.4122 139.101 79.9833C139.33 79.5544 139.625 79.2383 139.985 79.0351C140.348 78.832 140.726 78.7326 141.126 78.7326C141.484 78.7326 141.802 78.8026 142.081 78.9403C142.361 79.078 142.598 79.2586 142.792 79.4799C142.989 79.7011 143.136 79.9404 143.236 80.1978C143.335 80.4551 143.386 80.7012 143.386 80.9405L142.959 81.0918C142.922 80.9089 142.862 80.7328 142.778 80.559C142.698 80.3852 142.592 80.2294 142.462 80.0872C142.333 79.9449 142.183 79.8321 142.012 79.7485C141.841 79.665 141.65 79.6221 141.435 79.6221C141.153 79.6221 140.895 79.6921 140.659 79.8366C140.424 79.9811 140.235 80.1978 140.094 80.4935C139.953 80.7892 139.882 81.1685 139.882 81.6336C139.882 82.0919 139.953 82.4711 140.099 82.7714C140.244 83.0739 140.438 83.2974 140.68 83.4464C140.923 83.5954 141.186 83.6699 141.47 83.6699C141.68 83.6699 141.869 83.6247 142.042 83.5344C142.215 83.4441 142.365 83.3222 142.49 83.1687C142.615 83.0174 142.716 82.8459 142.792 82.6562C142.869 82.4666 142.917 82.2725 142.935 82.0715L143.397 82.2228C143.397 82.4689 143.346 82.7285 143.247 83.0016C143.148 83.2748 143.002 83.5299 142.813 83.7647C142.622 84.0017 142.391 84.1914 142.116 84.3381C141.841 84.4849 141.527 84.5571 141.17 84.5571L141.177 84.5548ZM144.055 76.0687L144.046 84.0785L143.538 83.5818H144.946V84.4374H143.042L142.912 83.2635L142.922 76.0687H144.057H144.055Z" fill="#290A3F"></path>
  <path d="M149.253 84.5661C148.912 84.5661 148.572 84.5074 148.235 84.39C147.898 84.2726 147.594 84.0943 147.321 83.855C147.049 83.6157 146.83 83.3132 146.666 82.9452C146.502 82.5772 146.421 82.1415 146.423 81.6403C146.423 81.1392 146.506 80.7034 146.67 80.3355C146.834 79.9675 147.054 79.665 147.331 79.4302C147.608 79.1954 147.915 79.0193 148.252 78.9042C148.591 78.789 148.935 78.7326 149.283 78.7326C149.648 78.7326 149.999 78.789 150.331 78.9019C150.664 79.0148 150.964 79.1796 151.222 79.3986C151.483 79.6176 151.689 79.893 151.841 80.2248C151.993 80.5567 152.067 80.9427 152.067 81.3852C152.067 81.4552 152.065 81.5342 152.058 81.62C152.051 81.7058 152.042 81.7803 152.026 81.8435L147.321 81.8367V81.1279L150.876 81.1324V81.0443C150.876 80.7441 150.805 80.4822 150.661 80.2632C150.518 80.0442 150.324 79.8749 150.084 79.7575C149.844 79.6401 149.581 79.5814 149.3 79.5814C149.094 79.5814 148.891 79.6198 148.69 79.6943C148.489 79.7711 148.305 79.8907 148.136 80.0533C147.968 80.2158 147.834 80.4303 147.732 80.6922C147.631 80.954 147.58 81.2701 147.58 81.6381C147.58 82.0963 147.661 82.4779 147.827 82.7849C147.991 83.0919 148.205 83.3245 148.471 83.4802C148.734 83.636 149.018 83.715 149.318 83.715C149.6 83.715 149.842 83.6721 150.047 83.5841C150.253 83.496 150.419 83.3877 150.551 83.2545C150.68 83.1235 150.768 82.9926 150.814 82.8662L151.85 83.3741C151.763 83.5299 151.643 83.6789 151.488 83.8234C151.333 83.9656 151.146 84.0943 150.929 84.2049C150.71 84.3155 150.461 84.4036 150.181 84.469C149.902 84.5345 149.593 84.5661 149.253 84.5661Z" fill="#290A3F"></path>
  <path d="M91.9215 97.8834C91.6584 97.8834 91.3952 97.8473 91.1298 97.7773C90.8643 97.7073 90.6104 97.5967 90.368 97.45C90.1257 97.3032 89.911 97.1136 89.724 96.8833C89.537 96.653 89.387 96.3776 89.2762 96.0593C89.1654 95.741 89.1123 95.373 89.1123 94.9576C89.1123 94.5377 89.1677 94.1675 89.2785 93.8469C89.3893 93.5263 89.5393 93.2532 89.7263 93.0252C89.9133 92.7972 90.1303 92.612 90.3703 92.4676C90.6104 92.3231 90.8666 92.2192 91.1321 92.1515C91.3976 92.0838 91.663 92.0476 91.9262 92.0499C92.2332 92.0499 92.5171 92.0883 92.7733 92.1628C93.0295 92.2373 93.2604 92.3389 93.4635 92.4698C93.6666 92.6007 93.8398 92.7475 93.9829 92.9145C94.126 93.0793 94.2322 93.2554 94.3037 93.4428L93.2996 93.8943C93.2535 93.7453 93.175 93.5941 93.0642 93.4428C92.9511 93.2893 92.8033 93.1629 92.6163 93.059C92.4294 92.9574 92.2101 92.9055 91.9539 92.9055C91.76 92.9055 91.5638 92.9439 91.3699 93.0184C91.176 93.0929 90.9936 93.2148 90.8297 93.3796C90.6658 93.5444 90.5365 93.7589 90.4373 94.0207C90.3403 94.2826 90.2919 94.5964 90.2919 94.9599C90.2919 95.3211 90.3403 95.6304 90.435 95.8923C90.5319 96.1519 90.6612 96.3686 90.8251 96.5379C90.989 96.7072 91.1667 96.8314 91.3629 96.9127C91.5591 96.9939 91.753 97.0323 91.9469 97.0323C92.2055 97.0323 92.4271 96.9849 92.6117 96.8856C92.7964 96.7862 92.9441 96.6643 93.0572 96.5176C93.1704 96.3709 93.2465 96.2264 93.2881 96.0864L94.2968 96.5447C94.2253 96.7117 94.1168 96.8743 93.976 97.0346C93.8352 97.1949 93.662 97.3371 93.4589 97.4658C93.2558 97.5944 93.0249 97.696 92.7664 97.7728C92.5079 97.8495 92.2239 97.8857 91.9169 97.8857L91.9215 97.8834Z" fill="#290A3F"></path>
  <path d="M99.061 97.8924C98.8094 97.8924 98.5532 97.8585 98.2877 97.7931C98.0246 97.7276 97.7707 97.6237 97.526 97.4815C97.2836 97.3393 97.0643 97.1542 96.8681 96.9262C96.6719 96.6982 96.5195 96.4205 96.4064 96.0977C96.2933 95.7748 96.2402 95.3956 96.2402 94.9644C96.2402 94.5377 96.2979 94.1607 96.4087 93.8378C96.5195 93.515 96.6765 93.2396 96.8727 93.0138C97.0689 92.7881 97.2882 92.603 97.5329 92.463C97.7753 92.323 98.0292 92.2192 98.2946 92.1537C98.5601 92.0883 98.8163 92.0566 99.0679 92.0566C99.3195 92.0566 99.5758 92.0905 99.8412 92.156C100.104 92.2214 100.361 92.3253 100.605 92.4675C100.85 92.6097 101.069 92.7926 101.263 93.0206C101.457 93.2486 101.609 93.5241 101.725 93.8469C101.838 94.1697 101.896 94.5467 101.896 94.9734C101.896 95.4046 101.838 95.7816 101.723 96.1067C101.607 96.4295 101.452 96.7049 101.259 96.9352C101.065 97.1632 100.845 97.3483 100.598 97.4906C100.354 97.6305 100.097 97.7344 99.8343 97.7998C99.5688 97.8653 99.3126 97.8969 99.061 97.8969V97.8924ZM99.0633 97.039C99.2526 97.039 99.4465 97.0052 99.6404 96.9375C99.8343 96.8697 100.014 96.7546 100.181 96.5943C100.347 96.434 100.481 96.2218 100.587 95.9554C100.693 95.689 100.744 95.3617 100.744 94.9711C100.744 94.5851 100.693 94.26 100.589 93.9981C100.485 93.7363 100.349 93.524 100.185 93.3638C100.021 93.2035 99.8412 93.0883 99.6473 93.0161C99.4534 92.9461 99.2618 92.91 99.0703 92.91C98.8833 92.91 98.694 92.9461 98.4978 93.0161C98.3016 93.0861 98.1215 93.2012 97.9553 93.3615C97.7891 93.5218 97.6552 93.7317 97.5514 93.9936C97.4475 94.2555 97.3967 94.5806 97.3967 94.9666C97.3967 95.3572 97.4475 95.6845 97.5491 95.9509C97.6506 96.2173 97.7845 96.4295 97.9507 96.5898C98.1169 96.7501 98.297 96.8652 98.4909 96.9329C98.6871 97.0029 98.8787 97.0368 99.0633 97.0368V97.039Z" fill="#290A3F"></path>
  <path d="M103.299 97.7728L103.306 92.1944H104.338L104.433 93.3458L104.428 97.7751H103.299V97.7728ZM106.944 97.7773L106.949 94.4136C106.949 93.9305 106.861 93.567 106.688 93.3254C106.513 93.0839 106.231 92.962 105.838 92.962C105.587 92.962 105.358 93.0275 105.148 93.1629C104.938 93.2984 104.77 93.4699 104.64 93.6844C104.511 93.8989 104.44 94.1224 104.428 94.3571L103.994 94.2736C103.999 93.9982 104.059 93.7295 104.172 93.4677C104.287 93.2058 104.447 92.9688 104.652 92.7588C104.857 92.5489 105.098 92.3818 105.368 92.2576C105.64 92.1335 105.933 92.0702 106.249 92.0725C106.859 92.0725 107.316 92.2418 107.621 92.5759C107.925 92.9101 108.078 93.4225 108.078 94.1111L108.073 97.7818H106.944V97.7773ZM110.594 97.7818L110.598 94.4181C110.598 93.935 110.513 93.5715 110.34 93.33C110.167 93.0884 109.883 92.9665 109.488 92.9665C109.236 92.9665 109.006 93.032 108.795 93.1674C108.583 93.3006 108.412 93.4744 108.281 93.6889C108.149 93.9034 108.078 94.1269 108.066 94.3617L107.632 94.2781C107.632 94.0027 107.69 93.7341 107.807 93.4722C107.923 93.2103 108.084 92.9733 108.288 92.7633C108.491 92.5534 108.731 92.3863 109.008 92.2621C109.285 92.138 109.58 92.0748 109.901 92.077C110.305 92.077 110.642 92.156 110.912 92.3096C111.182 92.4631 111.388 92.7046 111.524 93.0297C111.66 93.3548 111.729 93.777 111.727 94.2939L111.722 97.7864H110.594V97.7818Z" fill="#290A3F"></path>
  <path d="M112.997 97.7863L113.004 92.2079H114.035L114.13 93.3593L114.125 97.7886H112.997V97.7863ZM116.639 97.7908L116.644 94.4271C116.644 93.944 116.556 93.5805 116.383 93.3389C116.207 93.0974 115.926 92.9755 115.533 92.9755C115.282 92.9755 115.053 93.0409 114.843 93.1741C114.633 93.3073 114.465 93.4812 114.335 93.6956C114.206 93.9101 114.135 94.1336 114.123 94.3684L113.689 94.2848C113.694 94.0094 113.754 93.7408 113.867 93.4789C113.982 93.217 114.142 92.98 114.347 92.77C114.552 92.5601 114.792 92.393 115.063 92.2689C115.335 92.1447 115.628 92.0837 115.944 92.0837C116.554 92.0837 117.011 92.2531 117.315 92.5872C117.62 92.9213 117.773 93.4338 117.773 94.1223L117.768 97.7931H116.639V97.7908ZM120.291 97.7953L120.296 94.4316C120.296 93.9485 120.21 93.585 120.037 93.3434C119.864 93.1019 119.58 92.98 119.185 92.98C118.934 92.98 118.703 93.0454 118.493 93.1786C118.28 93.3118 118.11 93.4857 117.978 93.7001C117.846 93.9146 117.775 94.1381 117.763 94.3729L117.329 94.2894C117.329 94.0139 117.387 93.7453 117.505 93.4834C117.622 93.2215 117.782 92.9845 117.985 92.7768C118.188 92.5668 118.428 92.3998 118.705 92.2756C118.982 92.1515 119.278 92.0905 119.598 92.0905C120.002 92.0905 120.339 92.1695 120.609 92.323C120.882 92.4788 121.085 92.7181 121.221 93.0432C121.357 93.3683 121.427 93.7904 121.424 94.3074L121.42 97.7998H120.291V97.7953Z" fill="#290A3F"></path>
  <path d="M125.189 97.9286C124.896 97.9286 124.628 97.8834 124.388 97.7931C124.146 97.7028 123.943 97.5629 123.772 97.371C123.603 97.1791 123.474 96.933 123.382 96.6282C123.292 96.3257 123.246 95.9623 123.246 95.5378L123.25 92.2192H124.379L124.374 95.373C124.374 95.7681 124.416 96.0864 124.501 96.3302C124.587 96.5741 124.716 96.7524 124.889 96.8653C125.062 96.9781 125.284 97.0368 125.554 97.0368C125.748 97.0368 125.93 97.0007 126.103 96.9262C126.276 96.8517 126.431 96.7479 126.565 96.6147C126.701 96.4815 126.81 96.3257 126.893 96.1519C126.976 95.9781 127.024 95.7907 127.036 95.5943L127.354 95.6959C127.354 95.9758 127.306 96.2467 127.214 96.5131C127.119 96.7795 126.983 97.0188 126.803 97.231C126.623 97.4455 126.396 97.6148 126.126 97.7412C125.856 97.8676 125.542 97.9308 125.185 97.9286H125.189ZM127.221 97.8022L127.01 96.6079L127.015 92.2238H128.144L128.137 97.2174L127.915 96.9556H128.811V97.8044H127.221V97.8022Z" fill="#290A3F"></path>
  <path d="M130.831 97.8066L130.837 92.2282H131.846L131.971 93.3728L131.966 97.8066H130.831ZM134.595 97.8111L134.6 94.6596C134.6 94.2645 134.559 93.9462 134.473 93.7024C134.388 93.4586 134.258 93.2802 134.085 93.1674C133.912 93.0545 133.691 92.9958 133.421 92.9958C133.227 92.9958 133.042 93.0319 132.871 93.1064C132.698 93.1809 132.543 93.2848 132.409 93.418C132.276 93.5511 132.165 93.7069 132.082 93.8808C131.999 94.0546 131.95 94.242 131.939 94.4384L131.62 94.3368C131.62 94.0568 131.668 93.7859 131.761 93.5195C131.853 93.2532 131.992 93.0139 132.172 92.7994C132.352 92.5849 132.578 92.4156 132.848 92.2892C133.118 92.1628 133.432 92.0995 133.79 92.1018C134.085 92.1018 134.355 92.147 134.593 92.2373C134.831 92.3276 135.039 92.4675 135.209 92.6594C135.38 92.8513 135.512 93.0996 135.602 93.4022C135.692 93.7047 135.738 94.0681 135.738 94.4925L135.733 97.8111H134.598H134.595Z" fill="#290A3F"></path>
  <path d="M137.458 97.8157V96.9691H139.33L139.335 93.0861H137.726V92.2373H140.463L140.456 96.9713H142.229V97.8224L137.456 97.8157H137.458ZM139.305 89.9142H140.491V91.183H139.305V89.9142Z" fill="#290A3F"></path>
  <path d="M146.675 97.9489C146.412 97.9489 146.149 97.9127 145.883 97.8428C145.618 97.7728 145.364 97.6622 145.122 97.5154C144.882 97.3687 144.667 97.179 144.478 96.9488C144.291 96.7185 144.141 96.4431 144.032 96.1248C143.924 95.8064 143.868 95.4385 143.868 95.0231C143.868 94.6032 143.924 94.2329 144.034 93.9124C144.145 93.5918 144.295 93.3186 144.482 93.0906C144.671 92.8626 144.886 92.6775 145.126 92.533C145.369 92.3908 145.622 92.2847 145.888 92.2169C146.153 92.1492 146.419 92.1154 146.682 92.1154C146.989 92.1154 147.273 92.1537 147.529 92.2282C147.785 92.3027 148.016 92.4066 148.219 92.5353C148.422 92.6662 148.596 92.8129 148.739 92.98C148.882 93.1448 148.988 93.3209 149.06 93.5083L148.055 93.9598C148.009 93.8108 147.931 93.6595 147.82 93.5083C147.707 93.3548 147.559 93.2283 147.372 93.1245C147.185 93.0229 146.966 92.971 146.71 92.971C146.516 92.971 146.322 93.0093 146.126 93.0838C145.929 93.1606 145.749 93.2803 145.586 93.4451C145.422 93.6099 145.292 93.8243 145.193 94.0862C145.096 94.3481 145.048 94.6619 145.045 95.0253C145.045 95.3865 145.094 95.6958 145.189 95.9577C145.285 96.2173 145.415 96.434 145.579 96.6034C145.743 96.7727 145.923 96.8968 146.116 96.9781C146.313 97.0594 146.507 97.0978 146.7 97.1C146.959 97.1 147.181 97.0504 147.365 96.9533C147.55 96.8539 147.698 96.732 147.811 96.5853C147.924 96.4386 148 96.2941 148.042 96.1541L149.05 96.6124C148.979 96.7795 148.87 96.9442 148.73 97.1023C148.589 97.2626 148.416 97.4048 148.212 97.5335C148.009 97.6621 147.778 97.7637 147.52 97.8405C147.261 97.9173 146.977 97.9534 146.67 97.9534L146.675 97.9489Z" fill="#290A3F"></path>
  <path d="M153.228 97.9579C152.905 97.9579 152.607 97.9172 152.335 97.836C152.063 97.7547 151.829 97.6373 151.631 97.4838C151.432 97.3303 151.28 97.1384 151.172 96.9104C151.063 96.6846 151.01 96.4227 151.01 96.1293C151.01 95.8809 151.056 95.6597 151.144 95.4678C151.234 95.2759 151.359 95.1111 151.518 94.9734C151.677 94.8357 151.857 94.7228 152.06 94.6348C152.261 94.5467 152.473 94.479 152.7 94.4384C152.924 94.3955 153.148 94.3752 153.374 94.3752C153.648 94.3752 153.898 94.4045 154.124 94.4609C154.35 94.5174 154.542 94.5851 154.699 94.6686C154.856 94.7499 154.969 94.8312 155.038 94.9079V94.1042C155.038 93.8988 154.999 93.7272 154.913 93.585C154.83 93.4428 154.717 93.3299 154.576 93.2441C154.436 93.1583 154.276 93.0951 154.101 93.0567C153.925 93.0184 153.738 92.998 153.545 92.998C153.351 92.998 153.164 93.0161 152.986 93.0522C152.806 93.0883 152.64 93.1358 152.485 93.1945C152.328 93.2509 152.19 93.3141 152.07 93.3818C151.947 93.4496 151.846 93.5128 151.763 93.5715L151.255 92.752C151.391 92.6526 151.578 92.5533 151.813 92.4562C152.049 92.3592 152.321 92.2802 152.633 92.2169C152.942 92.1537 153.274 92.1221 153.628 92.1244C153.858 92.1244 154.096 92.1424 154.334 92.1808C154.572 92.2192 154.803 92.2802 155.022 92.3659C155.241 92.4517 155.435 92.5669 155.608 92.7091C155.781 92.8536 155.918 93.0274 156.014 93.2351C156.111 93.4428 156.162 93.6866 156.162 93.9688L156.158 96.9917H157.007V97.8405H155.246L155.14 97.1248C155.07 97.2468 154.953 97.3732 154.784 97.5019C154.616 97.6305 154.401 97.7389 154.14 97.8269C153.877 97.915 153.572 97.9601 153.226 97.9601L153.228 97.9579ZM153.508 97.1158C153.794 97.1158 154.039 97.0729 154.246 96.9894C154.454 96.9059 154.623 96.802 154.754 96.6869C154.886 96.5695 154.98 96.4656 155.036 96.3731V95.6823C154.969 95.5897 154.858 95.4972 154.703 95.4091C154.549 95.3188 154.371 95.2443 154.17 95.1856C153.969 95.1269 153.766 95.0953 153.561 95.0953C153.321 95.0953 153.092 95.1292 152.873 95.1946C152.654 95.2624 152.473 95.3662 152.333 95.513C152.192 95.6574 152.12 95.8493 152.12 96.0864C152.12 96.3234 152.178 96.5198 152.293 96.6733C152.409 96.8268 152.57 96.9375 152.778 97.012C152.986 97.0842 153.228 97.1203 153.505 97.1226L153.508 97.1158Z" fill="#290A3F"></path>
  <path d="M158.304 93.1109V92.2621L163.507 92.2689V93.1177L158.304 93.1109ZM159.71 96.2422L159.717 90.4967H160.853L160.846 96.2106C160.846 96.4566 160.881 96.6485 160.95 96.7907C161.019 96.933 161.116 97.0346 161.238 97.0955C161.361 97.1565 161.497 97.1881 161.649 97.1881C161.804 97.1881 161.949 97.1587 162.083 97.1C162.217 97.0413 162.323 96.9397 162.402 96.793C162.483 96.6485 162.522 96.4453 162.522 96.1857H163.452C163.452 96.5131 163.399 96.7907 163.29 97.0142C163.184 97.24 163.041 97.4206 162.859 97.5583C162.679 97.696 162.473 97.7954 162.242 97.8586C162.012 97.9218 161.772 97.9534 161.52 97.9534C161.261 97.9534 161.024 97.924 160.804 97.8631C160.585 97.8044 160.396 97.7051 160.232 97.5696C160.068 97.4341 159.941 97.2558 159.846 97.0368C159.754 96.8178 159.708 96.5537 159.708 96.2444L159.71 96.2422Z" fill="#290A3F"></path>
  <path d="M165.405 97.8495V97.003H167.277L167.282 93.12H165.673V92.2711H168.41L168.403 97.0052H170.176V97.8563L165.403 97.8495H165.405ZM167.252 89.9481H168.438V91.2169H167.252V89.9481Z" fill="#290A3F"></path>
  <path d="M174.347 97.9827C174.096 97.9827 173.839 97.9489 173.574 97.8834C173.311 97.8179 173.057 97.7141 172.812 97.5719C172.57 97.4296 172.351 97.2445 172.154 97.0165C171.958 96.7885 171.806 96.5108 171.693 96.188C171.582 95.8652 171.524 95.4859 171.526 95.0547C171.526 94.628 171.584 94.251 171.697 93.9282C171.81 93.6053 171.965 93.3299 172.159 93.1019C172.355 92.8762 172.574 92.691 172.819 92.5511C173.064 92.4111 173.318 92.3073 173.581 92.2418C173.846 92.1763 174.103 92.1447 174.354 92.1447C174.606 92.1447 174.862 92.1786 175.127 92.244C175.391 92.3095 175.647 92.4134 175.891 92.5556C176.136 92.6978 176.355 92.8807 176.549 93.1087C176.743 93.3367 176.896 93.6099 177.011 93.9349C177.124 94.2578 177.182 94.6348 177.18 95.0615C177.18 95.4927 177.122 95.8697 177.006 96.1948C176.891 96.5176 176.739 96.793 176.542 97.0233C176.349 97.2513 176.129 97.4364 175.882 97.5786C175.638 97.7186 175.381 97.8224 175.118 97.8879C174.853 97.9534 174.597 97.985 174.345 97.985L174.347 97.9827ZM174.35 97.1294C174.539 97.1294 174.733 97.0955 174.927 97.0278C175.121 96.9601 175.301 96.8449 175.467 96.6846C175.633 96.5244 175.767 96.3121 175.873 96.0458C175.977 95.7794 176.03 95.452 176.03 95.0615C176.03 94.6754 175.979 94.3503 175.875 94.0885C175.771 93.8266 175.635 93.6144 175.471 93.4541C175.305 93.2938 175.127 93.1787 174.934 93.1064C174.74 93.0364 174.548 93.0003 174.359 93.0003C174.172 93.0003 173.98 93.0364 173.786 93.1064C173.59 93.1764 173.41 93.2915 173.244 93.4518C173.078 93.6121 172.944 93.8221 172.84 94.0839C172.736 94.3458 172.685 94.6709 172.685 95.0569C172.685 95.4475 172.736 95.7749 172.838 96.0412C172.939 96.3076 173.073 96.5198 173.239 96.6801C173.405 96.8404 173.585 96.9555 173.782 97.0233C173.978 97.091 174.169 97.1271 174.354 97.1271L174.35 97.1294Z" fill="#290A3F"></path>
  <path d="M179.31 97.8653L179.317 92.2869H180.326L180.451 93.4315L180.446 97.8653H179.31ZM183.075 97.8699L183.08 94.7183C183.08 94.3232 183.038 94.0049 182.953 93.7611C182.867 93.5173 182.738 93.339 182.565 93.2261C182.392 93.1132 182.17 93.0545 181.9 93.0545C181.706 93.0545 181.522 93.0906 181.351 93.1651C181.178 93.2396 181.023 93.3435 180.889 93.4767C180.755 93.6099 180.645 93.7656 180.561 93.9395C180.478 94.1133 180.43 94.3007 180.418 94.4971L180.1 94.3955C180.1 94.1156 180.148 93.8447 180.241 93.5783C180.333 93.3119 180.471 93.0726 180.651 92.8604C180.831 92.6459 181.058 92.4766 181.328 92.3502C181.598 92.2237 181.912 92.1605 182.27 92.1605C182.565 92.1605 182.835 92.2057 183.073 92.296C183.311 92.3863 183.518 92.5262 183.689 92.7181C183.86 92.91 183.992 93.1584 184.082 93.4609C184.172 93.7634 184.218 94.1268 184.218 94.5513L184.213 97.8699H183.078H183.075Z" fill="#290A3F"></path>
  <path d="M194.836 98.0076C194.43 98.0076 194.058 97.9647 193.723 97.8789C193.389 97.7931 193.102 97.6735 192.862 97.5245C192.622 97.3732 192.438 97.2061 192.304 97.0188L193.206 96.4183C193.266 96.5266 193.349 96.6237 193.453 96.7117C193.557 96.7998 193.682 96.8765 193.827 96.9443C193.97 97.012 194.132 97.0639 194.31 97.1C194.487 97.1384 194.677 97.1565 194.882 97.1565C195.081 97.1565 195.265 97.1407 195.441 97.1068C195.616 97.073 195.771 97.021 195.905 96.951C196.039 96.8811 196.145 96.7885 196.221 96.6756C196.297 96.5627 196.336 96.4273 196.336 96.2715C196.336 96.0774 196.258 95.9239 196.096 95.811C195.937 95.6981 195.722 95.6078 195.455 95.5401C195.187 95.4724 194.884 95.4159 194.55 95.3708C194.298 95.3324 194.051 95.2782 193.806 95.206C193.562 95.1337 193.338 95.0344 193.135 94.9057C192.932 94.7793 192.77 94.619 192.648 94.4271C192.525 94.2352 192.465 94.0027 192.465 93.7273C192.465 93.5083 192.514 93.3119 192.608 93.1426C192.703 92.971 192.832 92.8243 192.996 92.7023C193.16 92.5804 193.347 92.4788 193.557 92.4021C193.77 92.3253 193.991 92.2666 194.224 92.2305C194.457 92.1944 194.691 92.1763 194.924 92.1763C195.316 92.1763 195.665 92.226 195.976 92.3253C196.286 92.4247 196.546 92.5488 196.756 92.6978C196.967 92.8468 197.121 93.0003 197.216 93.1561L196.343 93.7137C196.29 93.6144 196.214 93.5218 196.119 93.4406C196.022 93.3593 195.909 93.2848 195.78 93.2216C195.651 93.1584 195.508 93.1087 195.353 93.0771C195.196 93.0432 195.034 93.0274 194.864 93.0252C194.73 93.0252 194.584 93.0342 194.427 93.0545C194.27 93.0748 194.123 93.111 193.984 93.1651C193.846 93.2193 193.735 93.2916 193.647 93.3841C193.559 93.4767 193.516 93.5963 193.516 93.7408C193.516 93.9124 193.583 94.0501 193.714 94.1562C193.848 94.2623 194.028 94.3481 194.259 94.4113C194.49 94.4745 194.748 94.5287 195.037 94.5739C195.231 94.6032 195.436 94.6416 195.655 94.6867C195.875 94.7319 196.087 94.7906 196.295 94.8651C196.503 94.9396 196.69 95.0366 196.858 95.154C197.027 95.2714 197.163 95.4159 197.262 95.5875C197.364 95.7591 197.412 95.9668 197.412 96.2128C197.412 96.4612 197.364 96.6847 197.269 96.8788C197.174 97.073 197.043 97.2423 196.874 97.3868C196.708 97.529 196.514 97.6486 196.295 97.7412C196.076 97.8337 195.842 97.9015 195.593 97.9466C195.344 97.9918 195.09 98.0121 194.831 98.0121L194.836 98.0076Z" fill="#290A3F"></path>
  <path d="M201.708 98.0166C201.385 98.0166 201.087 97.976 200.815 97.8947C200.542 97.8134 200.309 97.696 200.111 97.5425C199.912 97.389 199.76 97.1971 199.651 96.9691C199.543 96.7411 199.49 96.4815 199.49 96.188C199.49 95.9397 199.536 95.7184 199.624 95.5265C199.714 95.3346 199.838 95.1698 199.998 95.0344C200.157 94.8967 200.337 94.7838 200.54 94.6958C200.741 94.6077 200.953 94.54 201.179 94.4993C201.403 94.4565 201.627 94.4361 201.853 94.4361C202.128 94.4361 202.377 94.4655 202.604 94.5197C202.83 94.5761 203.022 94.6438 203.178 94.7274C203.335 94.8086 203.449 94.8899 203.518 94.9667V94.163C203.518 93.9575 203.479 93.786 203.393 93.6437C203.31 93.5015 203.197 93.3886 203.056 93.3028C202.915 93.2171 202.756 93.1538 202.581 93.1155C202.405 93.0771 202.218 93.0568 202.024 93.0568C201.83 93.0568 201.643 93.0748 201.466 93.111C201.286 93.1471 201.119 93.1945 200.965 93.2532C200.808 93.3119 200.669 93.3728 200.549 93.4406C200.427 93.5083 200.325 93.5715 200.242 93.6302L199.734 92.8107C199.871 92.7114 200.058 92.612 200.293 92.515C200.529 92.4179 200.801 92.3389 201.113 92.2757C201.422 92.2124 201.754 92.1808 202.107 92.1808C202.338 92.1808 202.576 92.2012 202.814 92.2373C203.054 92.2757 203.282 92.3366 203.502 92.4224C203.721 92.5082 203.915 92.6233 204.088 92.7656C204.261 92.91 204.397 93.0839 204.494 93.2916C204.593 93.497 204.642 93.7431 204.642 94.0253L204.637 97.0481H205.487V97.897H203.726L203.619 97.1813C203.55 97.3032 203.432 97.4296 203.264 97.5583C203.095 97.687 202.881 97.7954 202.62 97.8834C202.357 97.9714 202.052 98.0166 201.706 98.0166H201.708ZM201.99 97.1745C202.276 97.1745 202.521 97.1316 202.728 97.0481C202.936 96.9646 203.105 96.8607 203.236 96.7456C203.368 96.6282 203.462 96.5244 203.518 96.4318V95.741C203.451 95.6484 203.34 95.5559 203.185 95.4678C203.031 95.3775 202.853 95.303 202.652 95.2443C202.451 95.1856 202.248 95.154 202.043 95.154C201.803 95.154 201.574 95.1879 201.355 95.2534C201.136 95.3188 200.956 95.4249 200.815 95.5717C200.674 95.7162 200.602 95.9081 200.602 96.1451C200.602 96.3821 200.66 96.5785 200.775 96.7321C200.891 96.8856 201.052 96.9962 201.26 97.0707C201.468 97.1429 201.71 97.1791 201.987 97.1813L201.99 97.1745Z" fill="#290A3F"></path>
  <path d="M207.257 97.8992L207.264 92.3208H208.273L208.398 93.4654L208.393 97.8992H207.257ZM211.022 97.9037L211.027 94.7522C211.027 94.3571 210.985 94.0388 210.9 93.795C210.814 93.5512 210.685 93.3728 210.512 93.26C210.339 93.1471 210.117 93.0884 209.847 93.0884C209.653 93.0884 209.469 93.1245 209.298 93.199C209.125 93.2735 208.97 93.3773 208.836 93.5105C208.702 93.6437 208.592 93.7995 208.508 93.9733C208.425 94.1472 208.377 94.3345 208.365 94.531L208.047 94.4294C208.047 94.1494 208.095 93.8785 208.188 93.6121C208.28 93.3457 208.418 93.1064 208.598 92.892C208.779 92.6775 209.005 92.5082 209.275 92.3818C209.545 92.2553 209.859 92.1921 210.217 92.1944C210.512 92.1944 210.782 92.2395 211.02 92.3298C211.258 92.4202 211.465 92.5601 211.636 92.752C211.807 92.9439 211.939 93.1922 212.029 93.4947C212.119 93.7973 212.165 94.1607 212.165 94.5851L212.16 97.9037H211.025H211.022Z" fill="#290A3F"></path>
  <path d="M214.198 93.1787V92.3299L219.401 92.3366V93.1832L214.198 93.1764V93.1787ZM215.604 96.3099L215.611 90.5645H216.747L216.74 96.2783C216.74 96.5244 216.775 96.7163 216.844 96.8585C216.913 97.0007 217.01 97.1023 217.132 97.1633C217.255 97.2242 217.391 97.2558 217.543 97.2558C217.698 97.2558 217.843 97.2265 217.977 97.1678C218.111 97.1091 218.217 97.0075 218.296 96.8607C218.377 96.7163 218.416 96.5131 218.416 96.2535H219.346C219.346 96.5808 219.293 96.8585 219.184 97.082C219.078 97.3077 218.935 97.4883 218.753 97.6261C218.57 97.7638 218.367 97.8631 218.136 97.9263C217.906 97.9895 217.666 98.0211 217.414 98.0211C217.155 98.0211 216.918 97.9918 216.698 97.9308C216.479 97.8699 216.29 97.7728 216.126 97.6373C215.962 97.5019 215.835 97.3235 215.74 97.1046C215.648 96.8856 215.602 96.6214 215.602 96.3122L215.604 96.3099Z" fill="#290A3F"></path>
  <path d="M224.318 98.0437C223.977 98.0437 223.637 97.985 223.3 97.8676C222.963 97.7502 222.658 97.5719 222.386 97.3326C222.114 97.0933 221.894 96.7908 221.731 96.4228C221.567 96.0548 221.486 95.6191 221.486 95.1179C221.486 94.6168 221.569 94.1811 221.733 93.8131C221.897 93.4451 222.116 93.1426 222.393 92.9078C222.67 92.673 222.977 92.4969 223.314 92.3818C223.653 92.2667 223.997 92.2102 224.346 92.2102C224.711 92.2102 225.061 92.2667 225.394 92.3795C225.729 92.4924 226.026 92.6572 226.285 92.8762C226.546 93.0952 226.751 93.3706 226.903 93.7025C227.056 94.0343 227.13 94.4204 227.13 94.8628C227.13 94.9328 227.127 95.0118 227.12 95.0976C227.116 95.1834 227.104 95.2579 227.088 95.3211L222.384 95.3143V94.6055L225.939 94.61V94.5626C225.939 94.5626 225.939 94.54 225.939 94.5197C225.939 94.2194 225.867 93.9576 225.724 93.7386C225.581 93.5196 225.387 93.3503 225.147 93.2329C224.904 93.1155 224.644 93.0568 224.362 93.0568C224.157 93.0568 223.953 93.0952 223.75 93.1697C223.549 93.2464 223.365 93.3661 223.196 93.5286C223.028 93.6912 222.894 93.9056 222.792 94.1675C222.691 94.4294 222.64 94.7454 222.64 95.1134C222.64 95.5717 222.721 95.9532 222.887 96.2603C223.051 96.5673 223.266 96.7998 223.531 96.9556C223.794 97.1113 224.078 97.1904 224.378 97.1904C224.66 97.1904 224.902 97.1475 225.108 97.0594C225.313 96.9714 225.482 96.863 225.611 96.7298C225.74 96.5989 225.828 96.468 225.874 96.3438L226.913 96.8517C226.825 97.0075 226.705 97.1565 226.55 97.301C226.396 97.4432 226.209 97.5719 225.992 97.6825C225.772 97.7931 225.523 97.8812 225.244 97.9466C224.964 98.0121 224.655 98.0437 224.318 98.0437ZM224.805 91.63H223.739L225.417 90.0475H226.666L224.805 91.63Z" fill="#290A3F"></path>
  <path d="M100.963 63.3475C96.7736 63.343 93.7543 62.318 91.9053 60.2772C90.0563 58.2341 89.1353 54.9855 89.1399 50.5314L89.1445 46.145L98.2186 46.1563L98.2117 51.7663C98.2117 52.8025 98.3709 53.6152 98.6918 54.2022C99.0126 54.7891 99.5736 55.0826 100.372 55.0849C101.208 55.0849 101.785 54.8478 102.108 54.3737C102.429 53.8974 102.593 53.1163 102.593 52.0281C102.593 50.651 102.457 49.4997 102.18 48.5718C101.903 47.6462 101.42 46.7613 100.737 45.917C100.051 45.0749 99.1004 44.0906 97.8862 42.9686L93.7704 39.1375C90.698 36.2953 89.163 33.0467 89.1676 29.3895C89.1722 25.5652 90.084 22.6507 91.903 20.646C93.7219 18.6413 96.3534 17.6412 99.7952 17.6457C104.003 17.6502 106.986 18.7519 108.749 20.9462C110.51 23.1406 111.39 26.475 111.383 30.9472L102.048 30.9359L102.053 27.8498C102.053 27.238 101.875 26.7617 101.519 26.4208C101.164 26.0799 100.682 25.9106 100.072 25.9083C99.3427 25.9083 98.8072 26.107 98.4679 26.5066C98.1286 26.9062 97.9577 27.4209 97.9577 28.0485C97.9577 28.6761 98.1309 29.3579 98.4771 30.0893C98.8234 30.8207 99.5089 31.6628 100.534 32.6178L105.82 37.5979C106.879 38.5844 107.851 39.6274 108.738 40.7246C109.622 41.8218 110.333 43.0995 110.871 44.5534C111.408 46.0073 111.674 47.7794 111.672 49.8722C111.667 54.0893 110.866 57.3898 109.273 59.776C107.68 62.1623 104.91 63.3542 100.963 63.3497V63.3475Z" fill="#290A3F"></path>
  <path d="M118.645 62.9614L118.691 26.6962L113.241 26.6894L113.253 18.0701L133.331 18.095L133.319 26.7143L127.869 26.7075L127.823 62.9727L118.645 62.9614Z" fill="#290A3F"></path>
  <path d="M135.828 62.9818L135.886 18.0972L154.244 18.1198L154.232 26.791L145.209 26.7798L145.198 35.5277L153.854 35.539L153.842 43.98L145.186 43.9687L145.172 54.2451L154.793 54.2563L154.782 63.0043L135.823 62.9818H135.828Z" fill="#290A3F"></path>
  <path d="M161.749 63.0134L161.795 26.7482L156.345 26.7414L156.356 18.1221L176.434 18.1469L176.423 26.7662L170.973 26.7594L170.926 63.0247L161.749 63.0134Z" fill="#290A3F"></path>
  <path d="M189.885 63.4557C186.217 63.4512 183.415 62.363 181.48 60.1935C179.543 58.024 178.579 54.8906 178.585 50.7931L178.613 29.4728C178.618 25.6305 179.583 22.716 181.506 20.7294C183.428 18.7427 186.242 17.7517 189.945 17.7562C193.647 17.7607 196.459 18.7585 198.377 20.7497C200.295 22.7408 201.253 25.6576 201.249 29.4999L201.221 50.8202C201.216 54.9177 200.242 58.0489 198.301 60.2139C196.36 62.3788 193.555 63.4602 189.887 63.4557H189.885ZM189.972 55.1931C191.362 55.1931 192.059 53.8792 192.064 51.2424L192.092 29.3351C192.094 27.125 191.418 26.0188 190.063 26.0165C188.532 26.0165 187.766 27.1453 187.763 29.4051L187.736 51.2875C187.736 52.6827 187.907 53.6805 188.253 54.2855C188.599 54.8906 189.174 55.1931 189.972 55.1931Z" fill="#290A3F"></path>
  <path d="M215.856 63.4872C212.188 63.4827 209.385 62.3946 207.451 60.2251C205.514 58.0556 204.55 54.9221 204.556 50.8247L204.584 29.5044C204.589 25.6621 205.554 22.7476 207.476 20.7609C209.399 18.7743 212.213 17.7832 215.916 17.7877C219.618 17.7923 222.43 18.7901 224.348 20.7812C226.266 22.7724 227.224 25.6891 227.22 29.5315L227.192 50.8518C227.187 54.9492 226.213 58.0804 224.272 60.2454C222.331 62.4104 219.526 63.4918 215.858 63.4872H215.856ZM215.946 55.2246C217.335 55.2246 218.032 53.9107 218.037 51.2739L218.065 29.3667C218.067 27.1566 217.391 26.0504 216.036 26.0481C214.505 26.0481 213.739 27.1769 213.737 29.4367L213.709 51.3191C213.709 52.7142 213.88 53.7121 214.226 54.3171C214.572 54.9221 215.147 55.2246 215.946 55.2246Z" fill="#290A3F"></path>
</svg>
